<svg xmlns="http://www.w3.org/2000/svg" width="48" height="48" viewBox="0 0 48 48">
  <defs>
    <linearGradient id="faviconGradient" x1="0%" y1="0%" x2="100%" y2="100%">
      <stop offset="0%" stop-color="#00d4aa"/>
      <stop offset="100%" stop-color="#0ea5e9"/>
    </linearGradient>
  </defs>
  
  <!-- Fond rond -->
  <circle cx="24" cy="24" r="22" fill="url(#faviconGradient)" stroke="rgba(255,255,255,0.3)" stroke-width="2"/>
  
  <!-- QR Code stylisé plus grand -->
  <g transform="translate(8, 8)">
    <!-- Coins du QR -->
    <rect x="0" y="0" width="9" height="9" fill="white" rx="1.5"/>
    <rect x="1.5" y="1.5" width="6" height="6" fill="url(#faviconGradient)" rx="1"/>
    <rect x="3" y="3" width="3" height="3" fill="white"/>
    
    <rect x="23" y="0" width="9" height="9" fill="white" rx="1.5"/>
    <rect x="24.5" y="1.5" width="6" height="6" fill="url(#faviconGradient)" rx="1"/>
    <rect x="26" y="3" width="3" height="3" fill="white"/>
    
    <rect x="0" y="23" width="9" height="9" fill="white" rx="1.5"/>
    <rect x="1.5" y="24.5" width="6" height="6" fill="url(#faviconGradient)" rx="1"/>
    <rect x="3" y="26" width="3" height="3" fill="white"/>
    
    <!-- Motif central -->
    <rect x="12" y="3" width="3" height="3" fill="white"/>
    <rect x="18" y="3" width="3" height="3" fill="white"/>
    <rect x="12" y="9" width="3" height="3" fill="white"/>
    <rect x="18" y="9" width="3" height="3" fill="white"/>
    <rect x="15" y="12" width="3" height="3" fill="white"/>
    <rect x="12" y="15" width="3" height="3" fill="white"/>
    <rect x="18" y="15" width="3" height="3" fill="white"/>
    <rect x="21" y="18" width="3" height="3" fill="white"/>
    <rect x="24" y="21" width="3" height="3" fill="white"/>
    <rect x="27" y="24" width="3" height="3" fill="white"/>
  </g>
</svg>
