<svg xmlns="http://www.w3.org/2000/svg" width="32" height="32" viewBox="0 0 32 32">
  <defs>
    <linearGradient id="qrGradient" x1="0%" y1="0%" x2="100%" y2="100%">
      <stop offset="0%" stop-color="#00d4aa"/>
      <stop offset="100%" stop-color="#0ea5e9"/>
    </linearGradient>
  </defs>
  
  <!-- Fond rond -->
  <circle cx="16" cy="16" r="15" fill="url(#qrGradient)" stroke="rgba(255,255,255,0.2)" stroke-width="1"/>
  
  <!-- QR Code stylisé -->
  <g transform="translate(6, 6)">
    <!-- Coins du QR -->
    <rect x="0" y="0" width="6" height="6" fill="white" rx="1"/>
    <rect x="1" y="1" width="4" height="4" fill="url(#qrGradient)" rx="0.5"/>
    <rect x="2" y="2" width="2" height="2" fill="white"/>
    
    <rect x="14" y="0" width="6" height="6" fill="white" rx="1"/>
    <rect x="15" y="1" width="4" height="4" fill="url(#qrGradient)" rx="0.5"/>
    <rect x="16" y="2" width="2" height="2" fill="white"/>
    
    <rect x="0" y="14" width="6" height="6" fill="white" rx="1"/>
    <rect x="1" y="15" width="4" height="4" fill="url(#qrGradient)" rx="0.5"/>
    <rect x="2" y="16" width="2" height="2" fill="white"/>
    
    <!-- Motif central simplifié -->
    <rect x="8" y="2" width="2" height="2" fill="white"/>
    <rect x="12" y="2" width="2" height="2" fill="white"/>
    <rect x="8" y="6" width="2" height="2" fill="white"/>
    <rect x="12" y="6" width="2" height="2" fill="white"/>
    <rect x="10" y="8" width="2" height="2" fill="white"/>
    <rect x="8" y="10" width="2" height="2" fill="white"/>
    <rect x="12" y="10" width="2" height="2" fill="white"/>
    <rect x="14" y="12" width="2" height="2" fill="white"/>
    <rect x="16" y="14" width="2" height="2" fill="white"/>
    <rect x="18" y="16" width="2" height="2" fill="white"/>
  </g>
</svg>
